<svg id="visual" viewBox="0 0 3000 200" width="3000" height="200" xmlns="http://www.w3.org/2000/svg" xmlns:xlink="http://www.w3.org/1999/xlink" version="1.1"><path d="M0 47L71.5 50.2C143 53.3 286 59.7 428.8 62.8C571.7 66 714.3 66 857.2 57.3C1000 48.7 1143 31.3 1285.8 29.2C1428.7 27 1571.3 40 1714.2 38.3C1857 36.7 2000 20.3 2142.8 23.5C2285.7 26.7 2428.3 49.3 2571.2 67.5C2714 85.7 2857 99.3 2928.5 106.2L3000 113L3000 201L2928.5 201C2857 201 2714 201 2571.2 201C2428.3 201 2285.7 201 2142.8 201C2000 201 1857 201 1714.2 201C1571.3 201 1428.7 201 1285.8 201C1143 201 1000 201 857.2 201C714.3 201 571.7 201 428.8 201C286 201 143 201 71.5 201L0 201Z" fill="#d4a574"></path><path d="M0 125L71.5 123.3C143 121.7 286 118.3 428.8 115.7C571.7 113 714.3 111 857.2 118.7C1000 126.3 1143 143.7 1285.8 139.3C1428.7 135 1571.3 109 1714.2 104.8C1857 100.7 2000 118.3 2142.8 117.5C2285.7 116.7 2428.3 97.3 2571.2 83.2C2714 69 2857 60 2928.5 55.5L3000 51L3000 201L2928.5 201C2857 201 2714 201 2571.2 201C2428.3 201 2285.7 201 2142.8 201C2000 201 1857 201 1714.2 201C1571.3 201 1428.7 201 1285.8 201C1143 201 1000 201 857.2 201C714.3 201 571.7 201 428.8 201C286 201 143 201 71.5 201L0 201Z" fill="#765f49"></path><path d="M0 135L71.5 130.7C143 126.3 286 117.7 428.8 122.3C571.7 127 714.3 145 857.2 154C1000 163 1143 163 1285.8 160C1428.7 157 1571.3 151 1714.2 154.7C1857 158.3 2000 171.7 2142.8 164.2C2285.7 156.7 2428.3 128.3 2571.2 123C2714 117.7 2857 135.3 2928.5 144.2L3000 153L3000 201L2928.5 201C2857 201 2714 201 2571.2 201C2428.3 201 2285.7 201 2142.8 201C2000 201 1857 201 1714.2 201C1571.3 201 1428.7 201 1285.8 201C1143 201 1000 201 857.2 201C714.3 201 571.7 201 428.8 201C286 201 143 201 71.5 201L0 201Z" fill="#222222"></path></svg>