<svg id="visual" viewBox="0 0 900 600" width="900" height="600" xmlns="http://www.w3.org/2000/svg" xmlns:xlink="http://www.w3.org/1999/xlink" version="1.1"><rect x="0" y="0" width="900" height="600" fill="#000000"></rect><path d="M0 453L15 452.8C30 452.7 60 452.3 90 446C120 439.7 150 427.3 180 425.7C210 424 240 433 270 442.2C300 451.3 330 460.7 360 461.5C390 462.3 420 454.7 450 454.2C480 453.7 510 460.3 540 454.3C570 448.3 600 429.7 630 428C660 426.3 690 441.7 720 450.8C750 460 780 463 810 463.8C840 464.7 870 463.3 885 462.7L900 462L900 601L885 601C870 601 840 601 810 601C780 601 750 601 720 601C690 601 660 601 630 601C600 601 570 601 540 601C510 601 480 601 450 601C420 601 390 601 360 601C330 601 300 601 270 601C240 601 210 601 180 601C150 601 120 601 90 601C60 601 30 601 15 601L0 601Z" fill="#b8863f"></path><path d="M0 462L15 460.3C30 458.7 60 455.3 90 458.3C120 461.3 150 470.7 180 474.7C210 478.7 240 477.3 270 474.2C300 471 330 466 360 464C390 462 420 463 450 469.5C480 476 510 488 540 489.7C570 491.3 600 482.7 630 477C660 471.3 690 468.7 720 472.2C750 475.7 780 485.3 810 481.8C840 478.3 870 461.7 885 453.3L900 445L900 601L885 601C870 601 840 601 810 601C780 601 750 601 720 601C690 601 660 601 630 601C600 601 570 601 540 601C510 601 480 601 450 601C420 601 390 601 360 601C330 601 300 601 270 601C240 601 210 601 180 601C150 601 120 601 90 601C60 601 30 601 15 601L0 601Z" fill="#7b5c30"></path><path d="M0 512L15 507.8C30 503.7 60 495.3 90 498.5C120 501.7 150 516.3 180 520C210 523.7 240 516.3 270 513.7C300 511 330 513 360 517.3C390 521.7 420 528.3 450 527C480 525.7 510 516.3 540 509.7C570 503 600 499 630 496.5C660 494 690 493 720 493.7C750 494.3 780 496.7 810 503.3C840 510 870 521 885 526.5L900 532L900 601L885 601C870 601 840 601 810 601C780 601 750 601 720 601C690 601 660 601 630 601C600 601 570 601 540 601C510 601 480 601 450 601C420 601 390 601 360 601C330 601 300 601 270 601C240 601 210 601 180 601C150 601 120 601 90 601C60 601 30 601 15 601L0 601Z" fill="#443521"></path><path d="M0 533L15 534.8C30 536.7 60 540.3 90 541.8C120 543.3 150 542.7 180 541C210 539.3 240 536.7 270 537C300 537.3 330 540.7 360 546C390 551.3 420 558.7 450 561.3C480 564 510 562 540 563.5C570 565 600 570 630 571.2C660 572.3 690 569.7 720 568.7C750 567.7 780 568.3 810 562.5C840 556.7 870 544.3 885 538.2L900 532L900 601L885 601C870 601 840 601 810 601C780 601 750 601 720 601C690 601 660 601 630 601C600 601 570 601 540 601C510 601 480 601 450 601C420 601 390 601 360 601C330 601 300 601 270 601C240 601 210 601 180 601C150 601 120 601 90 601C60 601 30 601 15 601L0 601Z" fill="#111111"></path></svg>