<svg id="visual" viewBox="0 0 3000 800" width="3000" height="800" xmlns="http://www.w3.org/2000/svg" xmlns:xlink="http://www.w3.org/1999/xlink" version="1.1"><path d="M0 506L71.5 511C143 516 286 526 428.8 536.3C571.7 546.7 714.3 557.3 857.2 553.7C1000 550 1143 532 1285.8 536.5C1428.7 541 1571.3 568 1714.2 566C1857 564 2000 533 2142.8 531.5C2285.7 530 2428.3 558 2571.2 561.5C2714 565 2857 544 2928.5 533.5L3000 523L3000 801L2928.5 801C2857 801 2714 801 2571.2 801C2428.3 801 2285.7 801 2142.8 801C2000 801 1857 801 1714.2 801C1571.3 801 1428.7 801 1285.8 801C1143 801 1000 801 857.2 801C714.3 801 571.7 801 428.8 801C286 801 143 801 71.5 801L0 801Z" fill="#d4a574"></path><path d="M0 603L71.5 596.2C143 589.3 286 575.7 428.8 569.3C571.7 563 714.3 564 857.2 576.3C1000 588.7 1143 612.3 1285.8 615.8C1428.7 619.3 1571.3 602.7 1714.2 602.8C1857 603 2000 620 2142.8 609.7C2285.7 599.3 2428.3 561.7 2571.2 548C2714 534.3 2857 544.7 2928.5 549.8L3000 555L3000 801L2928.5 801C2857 801 2714 801 2571.2 801C2428.3 801 2285.7 801 2142.8 801C2000 801 1857 801 1714.2 801C1571.3 801 1428.7 801 1285.8 801C1143 801 1000 801 857.2 801C714.3 801 571.7 801 428.8 801C286 801 143 801 71.5 801L0 801Z" fill="#a4815e"></path><path d="M0 646L71.5 650.7C143 655.3 286 664.7 428.8 669.2C571.7 673.7 714.3 673.3 857.2 665C1000 656.7 1143 640.3 1285.8 634.5C1428.7 628.7 1571.3 633.3 1714.2 633.7C1857 634 2000 630 2142.8 631.5C2285.7 633 2428.3 640 2571.2 638.2C2714 636.3 2857 625.7 2928.5 620.3L3000 615L3000 801L2928.5 801C2857 801 2714 801 2571.2 801C2428.3 801 2285.7 801 2142.8 801C2000 801 1857 801 1714.2 801C1571.3 801 1428.7 801 1285.8 801C1143 801 1000 801 857.2 801C714.3 801 571.7 801 428.8 801C286 801 143 801 71.5 801L0 801Z" fill="#765f49"></path><path d="M0 691L71.5 691.3C143 691.7 286 692.3 428.8 689.7C571.7 687 714.3 681 857.2 676.5C1000 672 1143 669 1285.8 676.8C1428.7 684.7 1571.3 703.3 1714.2 707.3C1857 711.3 2000 700.7 2142.8 690.5C2285.7 680.3 2428.3 670.7 2571.2 663C2714 655.3 2857 649.7 2928.5 646.8L3000 644L3000 801L2928.5 801C2857 801 2714 801 2571.2 801C2428.3 801 2285.7 801 2142.8 801C2000 801 1857 801 1714.2 801C1571.3 801 1428.7 801 1285.8 801C1143 801 1000 801 857.2 801C714.3 801 571.7 801 428.8 801C286 801 143 801 71.5 801L0 801Z" fill="#4b3f35"></path><path d="M0 765L71.5 760.2C143 755.3 286 745.7 428.8 736.7C571.7 727.7 714.3 719.3 857.2 719.2C1000 719 1143 727 1285.8 733C1428.7 739 1571.3 743 1714.2 746.2C1857 749.3 2000 751.7 2142.8 748.3C2285.7 745 2428.3 736 2571.2 730.3C2714 724.7 2857 722.3 2928.5 721.2L3000 720L3000 801L2928.5 801C2857 801 2714 801 2571.2 801C2428.3 801 2285.7 801 2142.8 801C2000 801 1857 801 1714.2 801C1571.3 801 1428.7 801 1285.8 801C1143 801 1000 801 857.2 801C714.3 801 571.7 801 428.8 801C286 801 143 801 71.5 801L0 801Z" fill="#222222"></path></svg>