<svg id="visual" viewBox="0 0 1600 300" width="1600" height="300" xmlns="http://www.w3.org/2000/svg" xmlns:xlink="http://www.w3.org/1999/xlink" version="1.1"><path d="M0 148L22.2 153.5C44.3 159 88.7 170 133.2 169.8C177.7 169.7 222.3 158.3 266.8 155.7C311.3 153 355.7 159 400 163.5C444.3 168 488.7 171 533.2 169.7C577.7 168.3 622.3 162.7 666.8 157.8C711.3 153 755.7 149 800 150C844.3 151 888.7 157 933.2 158.5C977.7 160 1022.3 157 1066.8 151.3C1111.3 145.7 1155.7 137.3 1200 141.8C1244.3 146.3 1288.7 163.7 1333.2 173.5C1377.7 183.3 1422.3 185.7 1466.8 186.7C1511.3 187.7 1555.7 187.3 1577.8 187.2L1600 187L1600 301L1577.8 301C1555.7 301 1511.3 301 1466.8 301C1422.3 301 1377.7 301 1333.2 301C1288.7 301 1244.3 301 1200 301C1155.7 301 1111.3 301 1066.8 301C1022.3 301 977.7 301 933.2 301C888.7 301 844.3 301 800 301C755.7 301 711.3 301 666.8 301C622.3 301 577.7 301 533.2 301C488.7 301 444.3 301 400 301C355.7 301 311.3 301 266.8 301C222.3 301 177.7 301 133.2 301C88.7 301 44.3 301 22.2 301L0 301Z" fill="#ddab88"></path><path d="M0 168L22.2 170.3C44.3 172.7 88.7 177.3 133.2 177.3C177.7 177.3 222.3 172.7 266.8 176.5C311.3 180.3 355.7 192.7 400 199.5C444.3 206.3 488.7 207.7 533.2 202C577.7 196.3 622.3 183.7 666.8 185.8C711.3 188 755.7 205 800 210C844.3 215 888.7 208 933.2 203.3C977.7 198.7 1022.3 196.3 1066.8 195.5C1111.3 194.7 1155.7 195.3 1200 193.2C1244.3 191 1288.7 186 1333.2 182.3C1377.7 178.7 1422.3 176.3 1466.8 181C1511.3 185.7 1555.7 197.3 1577.8 203.2L1600 209L1600 301L1577.8 301C1555.7 301 1511.3 301 1466.8 301C1422.3 301 1377.7 301 1333.2 301C1288.7 301 1244.3 301 1200 301C1155.7 301 1111.3 301 1066.8 301C1022.3 301 977.7 301 933.2 301C888.7 301 844.3 301 800 301C755.7 301 711.3 301 666.8 301C622.3 301 577.7 301 533.2 301C488.7 301 444.3 301 400 301C355.7 301 311.3 301 266.8 301C222.3 301 177.7 301 133.2 301C88.7 301 44.3 301 22.2 301L0 301Z" fill="#92735d"></path><path d="M0 236L22.2 231.3C44.3 226.7 88.7 217.3 133.2 217.3C177.7 217.3 222.3 226.7 266.8 230C311.3 233.3 355.7 230.7 400 227.2C444.3 223.7 488.7 219.3 533.2 220.7C577.7 222 622.3 229 666.8 234.3C711.3 239.7 755.7 243.3 800 242C844.3 240.7 888.7 234.3 933.2 228.3C977.7 222.3 1022.3 216.7 1066.8 214.5C1111.3 212.3 1155.7 213.7 1200 219.8C1244.3 226 1288.7 237 1333.2 242.8C1377.7 248.7 1422.3 249.3 1466.8 241.2C1511.3 233 1555.7 216 1577.8 207.5L1600 199L1600 301L1577.8 301C1555.7 301 1511.3 301 1466.8 301C1422.3 301 1377.7 301 1333.2 301C1288.7 301 1244.3 301 1200 301C1155.7 301 1111.3 301 1066.8 301C1022.3 301 977.7 301 933.2 301C888.7 301 844.3 301 800 301C755.7 301 711.3 301 666.8 301C622.3 301 577.7 301 533.2 301C488.7 301 444.3 301 400 301C355.7 301 311.3 301 266.8 301C222.3 301 177.7 301 133.2 301C88.7 301 44.3 301 22.2 301L0 301Z" fill="#4e3f36"></path><path d="M0 267L22.2 268.7C44.3 270.3 88.7 273.7 133.2 271.7C177.7 269.7 222.3 262.3 266.8 258.5C311.3 254.7 355.7 254.3 400 255.2C444.3 256 488.7 258 533.2 257.7C577.7 257.3 622.3 254.7 666.8 255.5C711.3 256.3 755.7 260.7 800 264.3C844.3 268 888.7 271 933.2 266.5C977.7 262 1022.3 250 1066.8 244.2C1111.3 238.3 1155.7 238.7 1200 242.7C1244.3 246.7 1288.7 254.3 1333.2 259.3C1377.7 264.3 1422.3 266.7 1466.8 267.8C1511.3 269 1555.7 269 1577.8 269L1600 269L1600 301L1577.8 301C1555.7 301 1511.3 301 1466.8 301C1422.3 301 1377.7 301 1333.2 301C1288.7 301 1244.3 301 1200 301C1155.7 301 1111.3 301 1066.8 301C1022.3 301 977.7 301 933.2 301C888.7 301 844.3 301 800 301C755.7 301 711.3 301 666.8 301C622.3 301 577.7 301 533.2 301C488.7 301 444.3 301 400 301C355.7 301 311.3 301 266.8 301C222.3 301 177.7 301 133.2 301C88.7 301 44.3 301 22.2 301L0 301Z" fill="#111111"></path></svg>