<svg id="visual" viewBox="0 0 3000 200" width="3000" height="200" xmlns="http://www.w3.org/2000/svg" xmlns:xlink="http://www.w3.org/1999/xlink" version="1.1"><path d="M0 46L71.5 57.2C143 68.3 286 90.7 428.8 95.2C571.7 99.7 714.3 86.3 857.2 68C1000 49.7 1143 26.3 1285.8 25.3C1428.7 24.3 1571.3 45.7 1714.2 57.5C1857 69.3 2000 71.7 2142.8 72.7C2285.7 73.7 2428.3 73.3 2571.2 61.8C2714 50.3 2857 27.7 2928.5 16.3L3000 5L3000 201L2928.5 201C2857 201 2714 201 2571.2 201C2428.3 201 2285.7 201 2142.8 201C2000 201 1857 201 1714.2 201C1571.3 201 1428.7 201 1285.8 201C1143 201 1000 201 857.2 201C714.3 201 571.7 201 428.8 201C286 201 143 201 71.5 201L0 201Z" fill="#d4a574"></path><path d="M0 76L71.5 73.7C143 71.3 286 66.7 428.8 63C571.7 59.3 714.3 56.7 857.2 63.5C1000 70.3 1143 86.7 1285.8 87.3C1428.7 88 1571.3 73 1714.2 64C1857 55 2000 52 2142.8 61.3C2285.7 70.7 2428.3 92.3 2571.2 92.5C2714 92.7 2857 71.3 2928.5 60.7L3000 50L3000 201L2928.5 201C2857 201 2714 201 2571.2 201C2428.3 201 2285.7 201 2142.8 201C2000 201 1857 201 1714.2 201C1571.3 201 1428.7 201 1285.8 201C1143 201 1000 201 857.2 201C714.3 201 571.7 201 428.8 201C286 201 143 201 71.5 201L0 201Z" fill="#765f49"></path><path d="M0 157L71.5 154.3C143 151.7 286 146.3 428.8 152.3C571.7 158.3 714.3 175.7 857.2 172.3C1000 169 1143 145 1285.8 141.2C1428.7 137.3 1571.3 153.7 1714.2 164.3C1857 175 2000 180 2142.8 184.5C2285.7 189 2428.3 193 2571.2 191.3C2714 189.7 2857 182.3 2928.5 178.7L3000 175L3000 201L2928.5 201C2857 201 2714 201 2571.2 201C2428.3 201 2285.7 201 2142.8 201C2000 201 1857 201 1714.2 201C1571.3 201 1428.7 201 1285.8 201C1143 201 1000 201 857.2 201C714.3 201 571.7 201 428.8 201C286 201 143 201 71.5 201L0 201Z" fill="#222222"></path></svg>