<svg id="visual" viewBox="0 0 3000 200" width="3000" height="200" xmlns="http://www.w3.org/2000/svg" xmlns:xlink="http://www.w3.org/1999/xlink" version="1.1"><path d="M0 60L71.5 63C143 66 286 72 428.8 72.8C571.7 73.7 714.3 69.3 857.2 61.7C1000 54 1143 43 1285.8 39.3C1428.7 35.7 1571.3 39.3 1714.2 44C1857 48.7 2000 54.3 2142.8 66C2285.7 77.7 2428.3 95.3 2571.2 100C2714 104.7 2857 96.3 2928.5 92.2L3000 88L3000 201L2928.5 201C2857 201 2714 201 2571.2 201C2428.3 201 2285.7 201 2142.8 201C2000 201 1857 201 1714.2 201C1571.3 201 1428.7 201 1285.8 201C1143 201 1000 201 857.2 201C714.3 201 571.7 201 428.8 201C286 201 143 201 71.5 201L0 201Z" fill="#d4a574"></path><path d="M0 155L71.5 150C143 145 286 135 428.8 135.5C571.7 136 714.3 147 857.2 141.7C1000 136.3 1143 114.7 1285.8 103.2C1428.7 91.7 1571.3 90.3 1714.2 101C1857 111.7 2000 134.3 2142.8 141.2C2285.7 148 2428.3 139 2571.2 126.7C2714 114.3 2857 98.7 2928.5 90.8L3000 83L3000 201L2928.5 201C2857 201 2714 201 2571.2 201C2428.3 201 2285.7 201 2142.8 201C2000 201 1857 201 1714.2 201C1571.3 201 1428.7 201 1285.8 201C1143 201 1000 201 857.2 201C714.3 201 571.7 201 428.8 201C286 201 143 201 71.5 201L0 201Z" fill="#765f49"></path><path d="M0 110L71.5 115.3C143 120.7 286 131.3 428.8 138.3C571.7 145.3 714.3 148.7 857.2 147.2C1000 145.7 1143 139.3 1285.8 146C1428.7 152.7 1571.3 172.3 1714.2 169.7C1857 167 2000 142 2142.8 132.8C2285.7 123.7 2428.3 130.3 2571.2 136.3C2714 142.3 2857 147.7 2928.5 150.3L3000 153L3000 201L2928.5 201C2857 201 2714 201 2571.2 201C2428.3 201 2285.7 201 2142.8 201C2000 201 1857 201 1714.2 201C1571.3 201 1428.7 201 1285.8 201C1143 201 1000 201 857.2 201C714.3 201 571.7 201 428.8 201C286 201 143 201 71.5 201L0 201Z" fill="#222222"></path></svg>