<svg id="visual" viewBox="0 0 3000 200" width="3000" height="200" xmlns="http://www.w3.org/2000/svg" xmlns:xlink="http://www.w3.org/1999/xlink" version="1.1"><path d="M0 101L71.5 102.8C143 104.7 286 108.3 428.8 103C571.7 97.7 714.3 83.3 857.2 85.5C1000 87.7 1143 106.3 1285.8 98C1428.7 89.7 1571.3 54.3 1714.2 46.8C1857 39.3 2000 59.7 2142.8 57.8C2285.7 56 2428.3 32 2571.2 36.3C2714 40.7 2857 73.3 2928.5 89.7L3000 106L3000 201L2928.5 201C2857 201 2714 201 2571.2 201C2428.3 201 2285.7 201 2142.8 201C2000 201 1857 201 1714.2 201C1571.3 201 1428.7 201 1285.8 201C1143 201 1000 201 857.2 201C714.3 201 571.7 201 428.8 201C286 201 143 201 71.5 201L0 201Z" fill="#d4a574"></path><path d="M0 71L71.5 74.8C143 78.7 286 86.3 428.8 85.7C571.7 85 714.3 76 857.2 87C1000 98 1143 129 1285.8 132.8C1428.7 136.7 1571.3 113.3 1714.2 107.2C1857 101 2000 112 2142.8 118.2C2285.7 124.3 2428.3 125.7 2571.2 123.3C2714 121 2857 115 2928.5 112L3000 109L3000 201L2928.5 201C2857 201 2714 201 2571.2 201C2428.3 201 2285.7 201 2142.8 201C2000 201 1857 201 1714.2 201C1571.3 201 1428.7 201 1285.8 201C1143 201 1000 201 857.2 201C714.3 201 571.7 201 428.8 201C286 201 143 201 71.5 201L0 201Z" fill="#765f49"></path><path d="M0 138L71.5 134.7C143 131.3 286 124.7 428.8 119.7C571.7 114.7 714.3 111.3 857.2 114C1000 116.7 1143 125.3 1285.8 125.2C1428.7 125 1571.3 116 1714.2 116.7C1857 117.3 2000 127.7 2142.8 131C2285.7 134.3 2428.3 130.7 2571.2 140.3C2714 150 2857 173 2928.5 184.5L3000 196L3000 201L2928.5 201C2857 201 2714 201 2571.2 201C2428.3 201 2285.7 201 2142.8 201C2000 201 1857 201 1714.2 201C1571.3 201 1428.7 201 1285.8 201C1143 201 1000 201 857.2 201C714.3 201 571.7 201 428.8 201C286 201 143 201 71.5 201L0 201Z" fill="#222222"></path></svg>