<svg id="visual" viewBox="0 0 3000 200" width="3000" height="200" xmlns="http://www.w3.org/2000/svg" xmlns:xlink="http://www.w3.org/1999/xlink" version="1.1"><path d="M0 0L71.5 15.7C143 31.3 286 62.7 428.8 62.8C571.7 63 714.3 32 857.2 19.5C1000 7 1143 13 1285.8 28.3C1428.7 43.7 1571.3 68.3 1714.2 74.5C1857 80.7 2000 68.3 2142.8 68.2C2285.7 68 2428.3 80 2571.2 75.8C2714 71.7 2857 51.3 2928.5 41.2L3000 31L3000 201L2928.5 201C2857 201 2714 201 2571.2 201C2428.3 201 2285.7 201 2142.8 201C2000 201 1857 201 1714.2 201C1571.3 201 1428.7 201 1285.8 201C1143 201 1000 201 857.2 201C714.3 201 571.7 201 428.8 201C286 201 143 201 71.5 201L0 201Z" fill="#d4a574"></path><path d="M0 149L71.5 138.8C143 128.7 286 108.3 428.8 103.3C571.7 98.3 714.3 108.7 857.2 118.2C1000 127.7 1143 136.3 1285.8 142.5C1428.7 148.7 1571.3 152.3 1714.2 136.8C1857 121.3 2000 86.7 2142.8 84.8C2285.7 83 2428.3 114 2571.2 115.8C2714 117.7 2857 90.3 2928.5 76.7L3000 63L3000 201L2928.5 201C2857 201 2714 201 2571.2 201C2428.3 201 2285.7 201 2142.8 201C2000 201 1857 201 1714.2 201C1571.3 201 1428.7 201 1285.8 201C1143 201 1000 201 857.2 201C714.3 201 571.7 201 428.8 201C286 201 143 201 71.5 201L0 201Z" fill="#765f49"></path><path d="M0 167L71.5 162.7C143 158.3 286 149.7 428.8 148.3C571.7 147 714.3 153 857.2 159.2C1000 165.3 1143 171.7 1285.8 167.3C1428.7 163 1571.3 148 1714.2 151.3C1857 154.7 2000 176.3 2142.8 175.5C2285.7 174.7 2428.3 151.3 2571.2 136.7C2714 122 2857 116 2928.5 113L3000 110L3000 201L2928.5 201C2857 201 2714 201 2571.2 201C2428.3 201 2285.7 201 2142.8 201C2000 201 1857 201 1714.2 201C1571.3 201 1428.7 201 1285.8 201C1143 201 1000 201 857.2 201C714.3 201 571.7 201 428.8 201C286 201 143 201 71.5 201L0 201Z" fill="#222222"></path></svg>